<svg width="10" height="11" viewBox="0 0 10 11" fill="none" xmlns="http://www.w3.org/2000/svg">
<path fill-rule="evenodd" clip-rule="evenodd" d="M1 5.49998C1 3.48201 2.63588 1.84613 4.65385 1.84613C6.67181 1.84613 8.30769 3.48201 8.30769 5.49998C8.30769 7.51794 6.67181 9.15382 4.65385 9.15382C2.63588 9.15382 1 7.51794 1 5.49998ZM4.65385 0.84613C2.0836 0.84613 0 2.92973 0 5.49998C0 8.07022 2.0836 10.1538 4.65385 10.1538C7.22409 10.1538 9.30769 8.07022 9.30769 5.49998C9.30769 2.92973 7.22409 0.84613 4.65385 0.84613ZM5.15385 2.73075C5.15385 2.4546 4.92999 2.23075 4.65385 2.23075C4.3777 2.23075 4.15385 2.4546 4.15385 2.73075V5.3269C4.15385 5.49929 4.24266 5.65953 4.38885 5.7509L5.77346 6.61628C6.00763 6.76264 6.31611 6.69145 6.46246 6.45728C6.60882 6.22312 6.53763 5.91464 6.30346 5.76829L5.15385 5.04978V2.73075Z" fill="#98A2B3"/>
</svg>
